<?xml version="1.0" standalone="no"?>
<!DOCTYPE svg PUBLIC "-//W3C//DTD SVG 20010904//EN"
 "http://www.w3.org/TR/2001/REC-SVG-20010904/DTD/svg10.dtd">
<svg version="1.0" xmlns="http://www.w3.org/2000/svg"
 width="678.000000pt" height="834.000000pt" viewBox="0 0 678.000000 834.000000"
 preserveAspectRatio="xMidYMid meet">

<g transform="translate(0.000000,834.000000) scale(0.100000,-0.100000)"
fill="#000000" stroke="none">
<path d="M4055 8301 c-80 -23 -138 -50 -230 -106 -96 -58 -105 -61 -244 -91
-114 -24 -209 -64 -264 -110 -15 -13 -47 -29 -70 -35 -23 -7 -51 -20 -62 -30
-35 -31 -66 -37 -122 -26 -51 10 -54 10 -81 -16 -35 -33 -79 -35 -177 -7 -114
32 -130 29 -191 -37 -44 -48 -65 -61 -125 -83 -102 -35 -110 -49 -118 -198 -8
-144 -19 -166 -83 -176 -101 -15 -195 -82 -235 -167 -35 -74 -45 -146 -49
-354 -5 -216 -14 -280 -47 -353 -20 -43 -22 -64 -23 -259 -1 -122 -7 -241 -14
-279 -17 -87 -8 -214 25 -379 20 -101 24 -145 19 -197 -5 -58 -3 -74 16 -114
20 -41 21 -50 10 -84 -9 -29 -11 -62 -5 -122 15 -147 13 -157 -121 -538 -66
-189 -66 -232 4 -397 59 -139 70 -183 70 -269 -1 -98 35 -180 90 -208 15 -7
48 -16 74 -20 25 -4 51 -12 56 -19 16 -19 21 -87 27 -362 7 -283 21 -415 61
-562 14 -52 23 -105 20 -117 -3 -12 -24 -37 -46 -55 -27 -22 -53 -57 -75 -103
-19 -39 -39 -76 -44 -82 -6 -7 -50 -91 -99 -187 -48 -96 -155 -284 -236 -419
-223 -369 -272 -453 -341 -590 -35 -69 -74 -135 -86 -147 -13 -12 -53 -37 -89
-55 -36 -19 -101 -61 -145 -92 -79 -58 -147 -96 -194 -111 -14 -4 -115 -73
-224 -154 -259 -190 -414 -302 -564 -409 -67 -47 -121 -87 -119 -89 6 -7 346
-42 456 -48 63 -3 144 -8 180 -11 104 -8 1110 -5 1123 3 7 4 1131 8 2499 8
1367 0 2490 3 2494 7 18 18 -72 72 -210 125 -116 45 -331 148 -514 246 -78 43
-187 95 -242 117 -220 88 -241 117 -233 332 7 164 -6 271 -54 458 -23 93 -42
203 -59 355 -13 121 -31 256 -39 301 -21 111 -19 149 11 219 46 106 55 137 89
290 59 266 75 323 110 397 31 63 35 82 35 148 0 92 22 170 58 211 34 38 91 47
196 30 95 -16 166 -16 210 -1 47 15 106 84 130 151 11 30 57 130 102 223 118
239 115 218 110 756 -3 245 -8 463 -11 485 -27 184 -28 170 5 232 37 72 51
159 49 310 0 70 6 149 15 193 8 41 18 98 21 125 4 28 17 77 30 110 13 33 33
110 45 170 12 61 26 122 31 136 8 21 6 34 -11 65 -18 34 -20 54 -19 151 2 113
2 113 -33 170 -32 53 -36 67 -41 153 -9 148 -75 311 -205 501 -47 69 -70 93
-130 132 -72 47 -102 87 -102 132 0 18 -210 250 -299 331 -77 70 -239 178
-336 223 -176 83 -393 134 -688 161 -77 7 -149 20 -210 40 -96 30 -126 35
-296 48 -80 7 -105 12 -113 25 -11 21 -26 20 -103 -2z m-576 -398 c-16 -32
-29 -63 -29 -69 0 -6 -11 -21 -25 -34 -30 -29 -31 -33 -3 -70 18 -25 21 -42
20 -117 -1 -49 5 -113 13 -144 9 -33 12 -75 9 -100 -5 -38 0 -54 30 -111 20
-37 41 -80 46 -95 l10 -28 -25 30 c-14 17 -41 68 -61 115 -36 86 -73 144 -105
168 -16 11 -16 15 -3 40 11 19 13 43 8 85 -5 44 -2 63 10 82 21 31 21 74 0 82
-9 3 -39 -4 -68 -16 -77 -34 -84 -35 -121 -15 -28 15 -37 16 -47 6 -10 -10 -9
-18 4 -40 10 -15 22 -39 28 -53 6 -14 30 -41 54 -59 33 -24 47 -43 56 -76 7
-25 10 -48 6 -51 -12 -12 -71 25 -161 101 -92 79 -114 91 -95 55 20 -36 2 -33
-46 10 -49 43 -102 57 -89 24 10 -28 18 -73 12 -73 -3 0 -39 16 -80 36 -112
53 -121 43 -36 -45 68 -70 99 -120 99 -158 0 -25 -16 -4 -30 40 -6 20 -21 42
-33 48 -12 7 -41 29 -64 50 -41 37 -73 50 -73 29 0 -5 10 -30 22 -55 17 -34
19 -48 10 -57 -9 -9 -15 -2 -27 28 -25 63 -29 68 -83 97 -60 33 -69 61 -23 70
20 4 44 24 73 61 57 72 75 80 118 53 26 -17 56 -22 141 -27 77 -5 115 -12 134
-24 29 -19 44 -16 20 4 -25 20 -18 27 34 33 66 8 112 32 206 112 75 62 156
113 181 115 6 0 -2 -26 -17 -57z m-245 -958 c13 -6 23 -3 31 9 12 16 15 16 52
0 21 -10 76 -21 123 -26 104 -10 107 -10 146 -2 38 7 86 -16 259 -126 173
-111 194 -120 262 -120 64 0 148 34 228 91 25 18 65 37 91 44 96 24 241 -21
336 -104 47 -42 85 -61 120 -61 11 0 44 -17 72 -37 86 -61 159 -93 216 -93 36
0 52 -4 56 -15 4 -8 15 -15 26 -15 11 0 38 -15 61 -34 23 -18 71 -48 106 -66
78 -39 169 -123 200 -185 23 -46 46 -169 35 -186 -3 -5 3 -31 13 -57 30 -79
23 -181 -26 -366 -37 -142 -42 -174 -44 -285 -2 -118 0 -130 24 -182 15 -31
45 -85 68 -120 22 -34 41 -72 41 -82 0 -11 11 -32 23 -47 19 -22 24 -38 22
-77 -1 -27 -5 -55 -9 -61 -13 -21 -47 -13 -83 18 -73 64 -194 113 -443 180
-85 22 -159 45 -166 51 -7 6 -70 13 -141 16 -101 4 -142 2 -192 -11 -51 -13
-110 -16 -287 -16 -240 1 -261 -2 -301 -53 -23 -30 -55 -47 -86 -47 -25 0 -37
-16 -37 -50 0 -10 -7 -21 -16 -24 -32 -12 -211 -6 -262 9 -51 15 -52 17 -37
38 8 12 15 43 15 68 0 39 -5 51 -26 68 -31 25 -71 27 -110 6 -16 -8 -36 -15
-44 -15 -8 0 -94 27 -190 61 -336 116 -472 148 -665 156 -158 6 -162 4 -175
-86 -9 -67 -31 -100 -82 -127 -59 -31 -124 -4 -111 46 3 11 2 31 -1 45 -5 21
-12 25 -46 25 -58 0 -67 25 -51 131 13 83 7 109 -25 109 -26 0 -14 35 19 55
31 20 49 55 28 55 -6 0 -28 -16 -50 -35 -66 -60 -70 -42 -9 35 38 47 42 59 47
125 4 40 12 79 19 88 11 13 9 26 -13 76 -14 33 -25 67 -25 76 0 19 -4 19 -40
0 -18 -9 -32 -26 -36 -43 -3 -15 -10 -38 -14 -52 -8 -24 -8 -24 -9 7 -1 52 46
184 87 242 42 61 69 79 58 40 -3 -13 -9 -33 -12 -44 -2 -11 2 -29 10 -40 l15
-20 6 20 c4 11 16 41 27 66 16 37 18 50 9 68 -10 18 -8 23 14 33 14 6 25 20
25 30 0 32 -29 78 -50 78 -26 0 -60 -47 -60 -83 0 -32 -72 -157 -109 -191 -16
-15 -24 -16 -35 -7 -17 15 -28 -1 -45 -66 -13 -46 -26 -55 -36 -23 -12 38 31
136 127 290 17 27 3 36 -27 16 -27 -18 -35 -7 -10 14 8 7 15 26 15 42 0 41 21
78 75 127 43 40 46 45 36 68 -14 31 -24 24 -77 -52 -20 -30 -44 -55 -52 -55
-10 0 -12 5 -7 18 4 9 19 46 32 82 33 91 42 106 70 119 22 10 24 9 18 -9 -8
-24 3 -25 33 -4 28 19 41 10 24 -16 -10 -16 -10 -24 0 -40 7 -11 16 -20 20
-20 16 0 7 -37 -12 -55 -11 -10 -20 -27 -20 -37 0 -11 -16 -38 -35 -61 -19
-22 -35 -49 -35 -58 0 -16 5 -16 53 6 28 14 64 25 78 25 15 0 36 8 48 18 32
26 93 159 85 184 -5 17 10 36 80 103 65 62 86 89 86 108 0 26 8 34 79 80 22
14 38 34 43 54 11 41 44 66 70 52 27 -14 93 20 140 74 35 39 42 42 115 52 73
11 112 8 157 -10z m-1049 -1842 c38 -18 45 -42 19 -64 -24 -19 -14 -190 16
-279 45 -137 152 -277 289 -380 176 -133 469 -240 654 -240 134 0 314 75 426
176 74 67 100 120 108 216 3 41 14 90 25 112 14 27 18 49 13 72 -9 52 20 61
142 46 92 -12 157 -31 107 -32 -39 0 -45 -72 -13 -144 11 -27 22 -77 25 -117
2 -39 15 -181 29 -317 13 -136 27 -292 30 -347 3 -55 8 -115 11 -133 l5 -34
57 7 c70 8 76 3 120 -106 75 -183 62 -244 -45 -218 -68 17 -102 35 -149 81
-54 51 -102 60 -164 28 -24 -12 -61 -22 -82 -22 -54 1 -70 -27 -69 -115 0 -37
5 -83 10 -100 l10 -33 -42 0 c-40 0 -43 -2 -59 -43 -23 -54 -22 -65 1 -69 18
-3 18 -5 0 -73 -21 -78 -23 -123 -9 -145 8 -13 13 -13 41 3 22 12 35 15 43 7
21 -21 49 -6 126 65 8 7 44 18 80 23 108 16 218 50 255 78 19 14 35 29 35 33
0 3 29 37 65 75 43 45 65 77 65 92 0 13 9 41 20 61 11 21 20 47 20 58 0 33
-35 119 -67 166 -48 70 -63 105 -63 148 0 22 -7 66 -15 98 -23 85 -8 200 29
226 22 15 179 -5 228 -29 71 -36 150 -43 348 -30 152 10 180 14 211 34 20 12
52 22 72 22 38 0 53 19 34 43 -15 20 -32 23 -85 13 -78 -14 -55 1 50 34 383
118 598 327 598 580 0 62 2 69 22 76 35 11 48 -19 48 -110 0 -45 7 -117 15
-161 15 -86 18 -282 6 -380 -5 -33 -6 -62 -4 -65 8 -9 45 45 78 118 19 39 39
72 44 72 18 0 50 -51 71 -115 26 -80 69 -130 102 -120 13 4 30 14 39 21 22 20
35 18 63 -11 25 -25 68 -33 94 -16 22 13 25 82 8 141 -9 29 -16 70 -16 91 0
77 -91 137 -167 110 -55 -20 -59 -10 -44 123 7 63 9 131 5 152 l-7 37 62 -7
62 -7 18 43 c10 24 24 61 32 82 19 52 41 66 68 42 11 -10 24 -31 30 -47 10
-28 8 -31 -63 -83 -90 -67 -118 -104 -124 -167 -4 -42 -2 -49 14 -49 9 0 37
21 60 46 51 54 72 53 98 -4 24 -53 33 -123 35 -279 3 -195 -12 -244 -151 -521
-62 -123 -120 -229 -128 -236 -29 -26 -80 -46 -115 -46 -51 0 -105 25 -105 48
0 43 41 50 143 26 43 -10 37 30 -11 60 -47 29 -56 41 -72 91 -27 82 -58 106
-110 85 -33 -13 -33 -15 -55 -118 -19 -92 -23 -100 -88 -161 -92 -87 -135
-192 -139 -343 -3 -84 -4 -87 -38 -121 -40 -38 -57 -85 -66 -178 -10 -107 -34
-213 -54 -241 -14 -18 -20 -43 -20 -77 l0 -50 -25 24 c-19 20 -34 25 -76 25
-34 0 -63 7 -83 19 -35 22 -112 42 -131 35 -7 -3 -15 -27 -19 -53 -6 -49 -49
-126 -75 -136 -8 -3 -30 -8 -50 -11 -20 -3 -52 -15 -73 -25 -43 -22 -91 -25
-105 -6 -6 6 -16 30 -23 52 -7 22 -25 56 -40 75 -46 59 -52 78 -45 132 7 49 7
50 -39 91 -25 23 -50 56 -56 74 -12 32 -32 43 -82 43 -15 0 -48 10 -73 22 -63
31 -81 19 -77 -50 4 -60 -10 -92 -41 -92 -12 0 -52 16 -89 35 -122 62 -208 77
-307 54 -70 -16 -142 -14 -196 6 -60 22 -209 25 -273 7 -23 -7 -57 -26 -75
-42 -31 -27 -37 -28 -95 -23 -55 5 -66 3 -86 -16 -35 -33 -80 -42 -126 -26
-31 11 -47 12 -72 3 -47 -16 -58 -27 -58 -58 0 -68 25 -75 112 -35 49 23 69
25 184 26 143 2 210 -11 328 -63 59 -26 87 -31 210 -39 77 -6 158 -15 179 -20
36 -10 38 -12 31 -37 -25 -90 3 -106 134 -78 150 33 146 33 171 -8 26 -41 34
-43 61 -16 17 17 33 20 98 19 85 -1 140 -16 156 -43 9 -15 2 -26 -41 -66 -60
-55 -139 -89 -225 -97 -55 -5 -58 -5 -58 17 0 12 11 36 25 52 29 35 26 59 -11
97 l-23 25 -55 -19 c-49 -17 -63 -17 -155 -6 -91 12 -104 12 -126 -3 -14 -9
-25 -21 -25 -26 0 -5 -15 -3 -32 4 -18 7 -93 16 -166 20 -119 6 -137 5 -177
-13 -52 -23 -60 -38 -71 -136 -14 -132 -9 -142 79 -143 159 -1 442 -33 548
-63 41 -12 110 -22 154 -23 126 -4 130 -5 170 -32 34 -23 44 -25 101 -19 62 7
64 7 74 -20 15 -39 13 -49 -12 -60 -19 -9 -23 -17 -21 -53 2 -41 1 -43 -25
-42 -47 3 -52 1 -52 -29 0 -21 -6 -32 -21 -36 -11 -4 -25 -18 -31 -31 -6 -14
-21 -26 -32 -29 -51 -10 -108 -17 -206 -23 -58 -4 -111 -11 -118 -16 -33 -21
-274 -35 -455 -26 -83 4 -88 3 -115 -23 -15 -14 -43 -33 -63 -41 -50 -21 -66
-42 -51 -67 19 -30 15 -32 -38 -26 -122 15 -271 136 -408 332 -34 50 -101 137
-148 195 -47 58 -106 139 -131 180 -26 41 -90 120 -144 175 -108 112 -179 213
-179 257 0 16 14 57 31 91 41 79 49 165 24 257 -9 36 -20 93 -25 128 -5 42
-18 77 -35 104 -27 41 -28 45 -32 228 -4 171 -3 193 17 259 l22 72 -26 37
c-14 21 -26 43 -26 49 0 22 -51 52 -107 64 -68 14 -119 56 -109 92 3 12 9 51
12 87 5 55 2 77 -20 141 -15 42 -29 98 -31 123 -3 26 -14 83 -25 127 -22 86
-23 75 22 234 11 39 24 77 29 85 5 8 21 34 35 58 28 45 33 84 38 295 1 51 7
92 14 99 7 7 12 19 12 28 0 35 22 38 75 13z m3137 -2875 c-11 -29 -17 -85 -19
-168 -3 -109 -7 -140 -39 -244 -50 -168 -83 -227 -101 -180 -3 9 2 71 11 139
20 138 13 190 -30 230 -32 30 -30 35 11 35 32 0 36 4 60 55 15 30 39 67 56 82
16 15 29 35 29 45 0 26 11 48 25 48 10 0 9 -10 -3 -42z m-147 -745 c-10 -34
-21 -63 -25 -63 -18 0 -21 59 -5 96 39 94 58 73 30 -33z"/>
<path d="M5281 3600 c-21 -27 -42 -41 -65 -46 -48 -8 -109 -64 -140 -126 -21
-41 -26 -66 -26 -122 0 -98 6 -113 46 -126 19 -6 40 -21 48 -32 14 -20 14 -20
45 3 17 12 31 30 31 40 0 32 26 42 89 35 54 -6 61 -5 71 14 6 12 11 31 10 43
-4 39 -1 46 46 98 25 28 49 62 54 75 17 44 -23 110 -45 74 -11 -17 -25 -11
-37 15 -6 14 -19 25 -29 25 -32 0 -49 12 -49 35 0 39 -15 37 -49 -5z"/>
<path d="M3443 3380 c-46 -10 -63 -28 -63 -65 0 -46 41 -79 90 -71 142 22 135
20 135 45 0 28 -55 77 -100 89 -17 5 -45 5 -62 2z"/>
</g>
</svg>
